<?xml version="1.0" encoding="UTF-8" standalone="no"?>
<!DOCTYPE svg PUBLIC "-//W3C//DTD SVG 1.1//EN"
 "http://www.w3.org/Graphics/SVG/1.1/DTD/svg11.dtd">
<!-- Generated by graphviz version 2.43.0 (0)
 -->
<!-- Title: %3 Pages: 1 -->
<svg width="742pt" height="628pt"
 viewBox="0.00 0.00 741.50 628.00" xmlns="http://www.w3.org/2000/svg" xmlns:xlink="http://www.w3.org/1999/xlink">
<g id="graph0" class="graph" transform="scale(1 1) rotate(0) translate(36 592)">
<title>%3</title>
<polygon fill="white" stroke="transparent" points="-36,36 -36,-592 705.5,-592 705.5,36 -36,36"/>
<!-- n26 -->
<g id="node1" class="node">
<title>n26</title>
<path fill="#fafafa" stroke="black" stroke-width="2" d="M411,-523C411,-523 366,-523 366,-523 360,-523 354,-517 354,-511 354,-511 354,-499 354,-499 354,-493 360,-487 366,-487 366,-487 411,-487 411,-487 417,-487 423,-493 423,-499 423,-499 423,-511 423,-511 423,-517 417,-523 411,-523"/>
<text text-anchor="middle" x="388.5" y="-502.5" font-family="Fira Mono" font-size="10.00">work</text>
</g>
<!-- n25 -->
<g id="node2" class="node">
<title>n25</title>
<path fill="#fafafa" stroke="black" stroke-width="2" d="M294.5,-523C294.5,-523 252.5,-523 252.5,-523 246.5,-523 240.5,-517 240.5,-511 240.5,-511 240.5,-499 240.5,-499 240.5,-493 246.5,-487 252.5,-487 252.5,-487 294.5,-487 294.5,-487 300.5,-487 306.5,-493 306.5,-499 306.5,-499 306.5,-511 306.5,-511 306.5,-517 300.5,-523 294.5,-523"/>
<text text-anchor="middle" x="273.5" y="-502.5" font-family="Fira Mono" font-size="10.00">tags</text>
</g>
<!-- n25&#45;&gt;n26 -->
<g id="edge1" class="edge">
<title>n25&#45;&gt;n26</title>
<path fill="none" stroke="black" stroke-width="2" d="M306.58,-505C321.33,-505 338.82,-505 353.76,-505"/>
</g>
<!-- n24 -->
<g id="node3" class="node">
<title>n24</title>
<path fill="#fafafa" stroke="black" stroke-width="2" d="M651,-556C651,-556 586,-556 586,-556 580,-556 574,-550 574,-544 574,-544 574,-532 574,-532 574,-526 580,-520 586,-520 586,-520 651,-520 651,-520 657,-520 663,-526 663,-532 663,-532 663,-544 663,-544 663,-550 657,-556 651,-556"/>
<text text-anchor="middle" x="618.5" y="-535.5" font-family="Fira Mono" font-size="10.00">ticket_no</text>
</g>
<!-- n23 -->
<g id="node4" class="node">
<title>n23</title>
<path fill="#fafafa" stroke="black" stroke-width="2" d="M537.5,-556C537.5,-556 469.5,-556 469.5,-556 463.5,-556 457.5,-550 457.5,-544 457.5,-544 457.5,-532 457.5,-532 457.5,-526 463.5,-520 469.5,-520 469.5,-520 537.5,-520 537.5,-520 543.5,-520 549.5,-526 549.5,-532 549.5,-532 549.5,-544 549.5,-544 549.5,-550 543.5,-556 537.5,-556"/>
<text text-anchor="middle" x="503.5" y="-535.5" font-family="Fira Mono" font-size="10.00">subproj_3</text>
</g>
<!-- n23&#45;&gt;n24 -->
<g id="edge2" class="edge">
<title>n23&#45;&gt;n24</title>
<path fill="none" stroke="black" stroke-width="2" d="M549.81,-538C557.67,-538 565.83,-538 573.65,-538"/>
</g>
<!-- n22 -->
<g id="node5" class="node">
<title>n22</title>
<path fill="#fafafa" stroke="black" stroke-width="2" d="M651,-491C651,-491 586,-491 586,-491 580,-491 574,-485 574,-479 574,-479 574,-467 574,-467 574,-461 580,-455 586,-455 586,-455 651,-455 651,-455 657,-455 663,-461 663,-467 663,-467 663,-479 663,-479 663,-485 657,-491 651,-491"/>
<text text-anchor="middle" x="618.5" y="-470.5" font-family="Fira Mono" font-size="10.00">ticket_no</text>
</g>
<!-- n21 -->
<g id="node6" class="node">
<title>n21</title>
<path fill="#fafafa" stroke="black" stroke-width="2" d="M537.5,-491C537.5,-491 469.5,-491 469.5,-491 463.5,-491 457.5,-485 457.5,-479 457.5,-479 457.5,-467 457.5,-467 457.5,-461 463.5,-455 469.5,-455 469.5,-455 537.5,-455 537.5,-455 543.5,-455 549.5,-461 549.5,-467 549.5,-467 549.5,-479 549.5,-479 549.5,-485 543.5,-491 537.5,-491"/>
<text text-anchor="middle" x="503.5" y="-470.5" font-family="Fira Mono" font-size="10.00">subproj_2</text>
</g>
<!-- n21&#45;&gt;n22 -->
<g id="edge3" class="edge">
<title>n21&#45;&gt;n22</title>
<path fill="none" stroke="black" stroke-width="2" d="M549.81,-473C557.67,-473 565.83,-473 573.65,-473"/>
</g>
<!-- n20 -->
<g id="node7" class="node">
<title>n20</title>
<path fill="#fafafa" stroke="black" stroke-width="2" d="M651,-426C651,-426 586,-426 586,-426 580,-426 574,-420 574,-414 574,-414 574,-402 574,-402 574,-396 580,-390 586,-390 586,-390 651,-390 651,-390 657,-390 663,-396 663,-402 663,-402 663,-414 663,-414 663,-420 657,-426 651,-426"/>
<text text-anchor="middle" x="618.5" y="-405.5" font-family="Fira Mono" font-size="10.00">ticket_no</text>
</g>
<!-- n19 -->
<g id="node8" class="node">
<title>n19</title>
<path fill="#fafafa" stroke="black" stroke-width="2" d="M537.5,-426C537.5,-426 469.5,-426 469.5,-426 463.5,-426 457.5,-420 457.5,-414 457.5,-414 457.5,-402 457.5,-402 457.5,-396 463.5,-390 469.5,-390 469.5,-390 537.5,-390 537.5,-390 543.5,-390 549.5,-396 549.5,-402 549.5,-402 549.5,-414 549.5,-414 549.5,-420 543.5,-426 537.5,-426"/>
<text text-anchor="middle" x="503.5" y="-405.5" font-family="Fira Mono" font-size="10.00">subproj_1</text>
</g>
<!-- n19&#45;&gt;n20 -->
<g id="edge4" class="edge">
<title>n19&#45;&gt;n20</title>
<path fill="none" stroke="black" stroke-width="2" d="M549.81,-408C557.67,-408 565.83,-408 573.65,-408"/>
</g>
<!-- n18 -->
<g id="node9" class="node">
<title>n18</title>
<path fill="#fafafa" stroke="black" stroke-width="2" d="M427.5,-458C427.5,-458 349.5,-458 349.5,-458 343.5,-458 337.5,-452 337.5,-446 337.5,-446 337.5,-434 337.5,-434 337.5,-428 343.5,-422 349.5,-422 349.5,-422 427.5,-422 427.5,-422 433.5,-422 439.5,-428 439.5,-434 439.5,-434 439.5,-446 439.5,-446 439.5,-452 433.5,-458 427.5,-458"/>
<text text-anchor="middle" x="388.5" y="-437.5" font-family="Fira Mono" font-size="10.00">customer_1</text>
</g>
<!-- n18&#45;&gt;n23 -->
<g id="edge7" class="edge">
<title>n18&#45;&gt;n23</title>
<path fill="none" stroke="black" stroke-width="2" d="M422,-458.09C428.26,-462.46 434.43,-467.49 439.5,-473 450.81,-485.3 446.41,-493.51 457.5,-506 461.95,-511.02 467.34,-515.68 472.81,-519.82"/>
</g>
<!-- n18&#45;&gt;n21 -->
<g id="edge6" class="edge">
<title>n18&#45;&gt;n21</title>
<path fill="none" stroke="black" stroke-width="2" d="M439.72,-454.67C445.62,-456.39 451.6,-458.14 457.42,-459.84"/>
</g>
<!-- n18&#45;&gt;n19 -->
<g id="edge5" class="edge">
<title>n18&#45;&gt;n19</title>
<path fill="none" stroke="black" stroke-width="2" d="M439.72,-425.78C445.62,-424.11 451.6,-422.41 457.42,-420.77"/>
</g>
<!-- n17 -->
<g id="node10" class="node">
<title>n17</title>
<path fill="#fafafa" stroke="black" stroke-width="2" d="M303.5,-458C303.5,-458 243.5,-458 243.5,-458 237.5,-458 231.5,-452 231.5,-446 231.5,-446 231.5,-434 231.5,-434 231.5,-428 237.5,-422 243.5,-422 243.5,-422 303.5,-422 303.5,-422 309.5,-422 315.5,-428 315.5,-434 315.5,-434 315.5,-446 315.5,-446 315.5,-452 309.5,-458 303.5,-458"/>
<text text-anchor="middle" x="273.5" y="-437.5" font-family="Fira Mono" font-size="10.00">projects</text>
</g>
<!-- n17&#45;&gt;n18 -->
<g id="edge8" class="edge">
<title>n17&#45;&gt;n18</title>
<path fill="none" stroke="black" stroke-width="2" d="M315.62,-440C322.68,-440 330.1,-440 337.37,-440"/>
</g>
<!-- n16 -->
<g id="node11" class="node">
<title>n16</title>
<path fill="#fafafa" stroke="black" stroke-width="2" d="M181,-458C181,-458 136,-458 136,-458 130,-458 124,-452 124,-446 124,-446 124,-434 124,-434 124,-428 130,-422 136,-422 136,-422 181,-422 181,-422 187,-422 193,-428 193,-434 193,-434 193,-446 193,-446 193,-452 187,-458 181,-458"/>
<text text-anchor="middle" x="158.5" y="-437.5" font-family="Fira Mono" font-size="10.00">work</text>
</g>
<!-- n16&#45;&gt;n25 -->
<g id="edge10" class="edge">
<title>n16&#45;&gt;n25</title>
<path fill="none" stroke="black" stroke-width="2" d="M190.98,-458.11C206.65,-467.12 225.54,-477.99 241.19,-486.99"/>
</g>
<!-- n16&#45;&gt;n17 -->
<g id="edge9" class="edge">
<title>n16&#45;&gt;n17</title>
<path fill="none" stroke="black" stroke-width="2" d="M193.1,-440C205.07,-440 218.69,-440 231.23,-440"/>
</g>
<!-- n15 -->
<g id="node12" class="node">
<title>n15</title>
<path fill="#fafafa" stroke="black" stroke-width="2" d="M535,-361C535,-361 472,-361 472,-361 466,-361 460,-355 460,-349 460,-349 460,-337 460,-337 460,-331 466,-325 472,-325 472,-325 535,-325 535,-325 541,-325 547,-331 547,-337 547,-337 547,-349 547,-349 547,-355 541,-361 535,-361"/>
<text text-anchor="middle" x="503.5" y="-340.5" font-family="Fira Mono" font-size="10.00">homelab</text>
</g>
<!-- n14 -->
<g id="node13" class="node">
<title>n14</title>
<path fill="#fafafa" stroke="black" stroke-width="2" d="M527.5,-296C527.5,-296 479.5,-296 479.5,-296 473.5,-296 467.5,-290 467.5,-284 467.5,-284 467.5,-272 467.5,-272 467.5,-266 473.5,-260 479.5,-260 479.5,-260 527.5,-260 527.5,-260 533.5,-260 539.5,-266 539.5,-272 539.5,-272 539.5,-284 539.5,-284 539.5,-290 533.5,-296 527.5,-296"/>
<text text-anchor="middle" x="503.5" y="-275.5" font-family="Fira Mono" font-size="10.00">home</text>
</g>
<!-- n13 -->
<g id="node14" class="node">
<title>n13</title>
<path fill="#fafafa" stroke="black" stroke-width="2" d="M409.5,-296C409.5,-296 367.5,-296 367.5,-296 361.5,-296 355.5,-290 355.5,-284 355.5,-284 355.5,-272 355.5,-272 355.5,-266 361.5,-260 367.5,-260 367.5,-260 409.5,-260 409.5,-260 415.5,-260 421.5,-266 421.5,-272 421.5,-272 421.5,-284 421.5,-284 421.5,-290 415.5,-296 409.5,-296"/>
<text text-anchor="middle" x="388.5" y="-275.5" font-family="Fira Mono" font-size="10.00">tags</text>
</g>
<!-- n13&#45;&gt;n15 -->
<g id="edge12" class="edge">
<title>n13&#45;&gt;n15</title>
<path fill="none" stroke="black" stroke-width="2" d="M420.98,-296.11C436.65,-305.12 455.54,-315.99 471.19,-324.99"/>
</g>
<!-- n13&#45;&gt;n14 -->
<g id="edge11" class="edge">
<title>n13&#45;&gt;n14</title>
<path fill="none" stroke="black" stroke-width="2" d="M421.58,-278C435.8,-278 452.58,-278 467.17,-278"/>
</g>
<!-- n12 -->
<g id="node15" class="node">
<title>n12</title>
<path fill="#fafafa" stroke="black" stroke-width="2" d="M535,-231C535,-231 472,-231 472,-231 466,-231 460,-225 460,-219 460,-219 460,-207 460,-207 460,-201 466,-195 472,-195 472,-195 535,-195 535,-195 541,-195 547,-201 547,-207 547,-207 547,-219 547,-219 547,-225 541,-231 535,-231"/>
<text text-anchor="middle" x="503.5" y="-210.5" font-family="Fira Mono" font-size="10.00">homelab</text>
</g>
<!-- n11 -->
<g id="node16" class="node">
<title>n11</title>
<path fill="#fafafa" stroke="black" stroke-width="2" d="M414,-231C414,-231 363,-231 363,-231 357,-231 351,-225 351,-219 351,-219 351,-207 351,-207 351,-201 357,-195 363,-195 363,-195 414,-195 414,-195 420,-195 426,-201 426,-207 426,-207 426,-219 426,-219 426,-225 420,-231 414,-231"/>
<text text-anchor="middle" x="388.5" y="-210.5" font-family="Fira Mono" font-size="10.00">hobby</text>
</g>
<!-- n11&#45;&gt;n12 -->
<g id="edge13" class="edge">
<title>n11&#45;&gt;n12</title>
<path fill="none" stroke="black" stroke-width="2" d="M426.19,-213C436.89,-213 448.67,-213 459.71,-213"/>
</g>
<!-- n10 -->
<g id="node17" class="node">
<title>n10</title>
<path fill="#fafafa" stroke="black" stroke-width="2" d="M647,-296C647,-296 590,-296 590,-296 584,-296 578,-290 578,-284 578,-284 578,-272 578,-272 578,-266 584,-260 590,-260 590,-260 647,-260 647,-260 653,-260 659,-266 659,-272 659,-272 659,-284 659,-284 659,-290 653,-296 647,-296"/>
<text text-anchor="middle" x="618.5" y="-275.5" font-family="Fira Mono" font-size="10.00">laundry</text>
</g>
<!-- n9 -->
<g id="node18" class="node">
<title>n9</title>
<path fill="#fafafa" stroke="black" stroke-width="2" d="M650.5,-231C650.5,-231 586.5,-231 586.5,-231 580.5,-231 574.5,-225 574.5,-219 574.5,-219 574.5,-207 574.5,-207 574.5,-201 580.5,-195 586.5,-195 586.5,-195 650.5,-195 650.5,-195 656.5,-195 662.5,-201 662.5,-207 662.5,-207 662.5,-219 662.5,-219 662.5,-225 656.5,-231 650.5,-231"/>
<text text-anchor="middle" x="618.5" y="-210.5" font-family="Fira Mono" font-size="10.00">bedroom</text>
</g>
<!-- n8 -->
<g id="node19" class="node">
<title>n8</title>
<path fill="#fafafa" stroke="black" stroke-width="2" d="M642.5,-166C642.5,-166 594.5,-166 594.5,-166 588.5,-166 582.5,-160 582.5,-154 582.5,-154 582.5,-142 582.5,-142 582.5,-136 588.5,-130 594.5,-130 594.5,-130 642.5,-130 642.5,-130 648.5,-130 654.5,-136 654.5,-142 654.5,-142 654.5,-154 654.5,-154 654.5,-160 648.5,-166 642.5,-166"/>
<text text-anchor="middle" x="618.5" y="-145.5" font-family="Fira Mono" font-size="10.00">study</text>
</g>
<!-- n7 -->
<g id="node20" class="node">
<title>n7</title>
<path fill="#fafafa" stroke="black" stroke-width="2" d="M657.5,-101C657.5,-101 579.5,-101 579.5,-101 573.5,-101 567.5,-95 567.5,-89 567.5,-89 567.5,-77 567.5,-77 567.5,-71 573.5,-65 579.5,-65 579.5,-65 657.5,-65 657.5,-65 663.5,-65 669.5,-71 669.5,-77 669.5,-77 669.5,-89 669.5,-89 669.5,-95 663.5,-101 657.5,-101"/>
<text text-anchor="middle" x="618.5" y="-80.5" font-family="Fira Mono" font-size="10.00">living_room</text>
</g>
<!-- n6 -->
<g id="node21" class="node">
<title>n6</title>
<path fill="#fafafa" stroke="black" stroke-width="2" d="M647,-36C647,-36 590,-36 590,-36 584,-36 578,-30 578,-24 578,-24 578,-12 578,-12 578,-6 584,0 590,0 590,0 647,0 647,0 653,0 659,-6 659,-12 659,-12 659,-24 659,-24 659,-30 653,-36 647,-36"/>
<text text-anchor="middle" x="618.5" y="-15.5" font-family="Fira Mono" font-size="10.00">kitchen</text>
</g>
<!-- n5 -->
<g id="node22" class="node">
<title>n5</title>
<path fill="#fafafa" stroke="black" stroke-width="2" d="M534.5,-166C534.5,-166 472.5,-166 472.5,-166 466.5,-166 460.5,-160 460.5,-154 460.5,-154 460.5,-142 460.5,-142 460.5,-136 466.5,-130 472.5,-130 472.5,-130 534.5,-130 534.5,-130 540.5,-130 546.5,-136 546.5,-142 546.5,-142 546.5,-154 546.5,-154 546.5,-160 540.5,-166 534.5,-166"/>
<text text-anchor="middle" x="503.5" y="-145.5" font-family="Fira Mono" font-size="10.00">cleaning</text>
</g>
<!-- n5&#45;&gt;n10 -->
<g id="edge18" class="edge">
<title>n5&#45;&gt;n10</title>
<path fill="none" stroke="black" stroke-width="2" d="M535.15,-166.11C540.54,-170.42 545.65,-175.42 549.5,-181 566.53,-205.67 549.7,-221.88 567.5,-246 571.42,-251.31 576.5,-255.96 581.92,-259.96"/>
</g>
<!-- n5&#45;&gt;n9 -->
<g id="edge17" class="edge">
<title>n5&#45;&gt;n9</title>
<path fill="none" stroke="black" stroke-width="2" d="M535.98,-166.11C551.65,-175.12 570.54,-185.99 586.19,-194.99"/>
</g>
<!-- n5&#45;&gt;n8 -->
<g id="edge16" class="edge">
<title>n5&#45;&gt;n8</title>
<path fill="none" stroke="black" stroke-width="2" d="M546.58,-148C558.37,-148 571.07,-148 582.41,-148"/>
</g>
<!-- n5&#45;&gt;n7 -->
<g id="edge15" class="edge">
<title>n5&#45;&gt;n7</title>
<path fill="none" stroke="black" stroke-width="2" d="M535.98,-129.89C551.65,-120.88 570.54,-110.01 586.19,-101.01"/>
</g>
<!-- n5&#45;&gt;n6 -->
<g id="edge14" class="edge">
<title>n5&#45;&gt;n6</title>
<path fill="none" stroke="black" stroke-width="2" d="M513.29,-129.98C524.03,-109.23 543.73,-74.94 567.5,-51 572.92,-45.54 579.39,-40.48 585.84,-36.04"/>
</g>
<!-- n4 -->
<g id="node23" class="node">
<title>n4</title>
<path fill="#fafafa" stroke="black" stroke-width="2" d="M412.5,-166C412.5,-166 364.5,-166 364.5,-166 358.5,-166 352.5,-160 352.5,-154 352.5,-154 352.5,-142 352.5,-142 352.5,-136 358.5,-130 364.5,-130 364.5,-130 412.5,-130 412.5,-130 418.5,-130 424.5,-136 424.5,-142 424.5,-142 424.5,-154 424.5,-154 424.5,-160 418.5,-166 412.5,-166"/>
<text text-anchor="middle" x="388.5" y="-145.5" font-family="Fira Mono" font-size="10.00">home</text>
</g>
<!-- n4&#45;&gt;n5 -->
<g id="edge19" class="edge">
<title>n4&#45;&gt;n5</title>
<path fill="none" stroke="black" stroke-width="2" d="M424.63,-148C435.91,-148 448.51,-148 460.24,-148"/>
</g>
<!-- n3 -->
<g id="node24" class="node">
<title>n3</title>
<path fill="#fafafa" stroke="black" stroke-width="2" d="M303.5,-263C303.5,-263 243.5,-263 243.5,-263 237.5,-263 231.5,-257 231.5,-251 231.5,-251 231.5,-239 231.5,-239 231.5,-233 237.5,-227 243.5,-227 243.5,-227 303.5,-227 303.5,-227 309.5,-227 315.5,-233 315.5,-239 315.5,-239 315.5,-251 315.5,-251 315.5,-257 309.5,-263 303.5,-263"/>
<text text-anchor="middle" x="273.5" y="-242.5" font-family="Fira Mono" font-size="10.00">projects</text>
</g>
<!-- n3&#45;&gt;n13 -->
<g id="edge22" class="edge">
<title>n3&#45;&gt;n13</title>
<path fill="none" stroke="black" stroke-width="2" d="M315.62,-257.01C328.74,-260.84 343.07,-265.02 355.45,-268.64"/>
</g>
<!-- n3&#45;&gt;n11 -->
<g id="edge21" class="edge">
<title>n3&#45;&gt;n11</title>
<path fill="none" stroke="black" stroke-width="2" d="M315.62,-233.36C327.1,-230.1 339.5,-226.59 350.72,-223.42"/>
</g>
<!-- n3&#45;&gt;n4 -->
<g id="edge20" class="edge">
<title>n3&#45;&gt;n4</title>
<path fill="none" stroke="black" stroke-width="2" d="M290.42,-226.88C302.64,-213.47 320.28,-195.16 337.5,-181 343.85,-175.78 351.04,-170.64 357.95,-166.03"/>
</g>
<!-- n2 -->
<g id="node25" class="node">
<title>n2</title>
<path fill="#fafafa" stroke="black" stroke-width="2" d="M190,-328C190,-328 127,-328 127,-328 121,-328 115,-322 115,-316 115,-316 115,-304 115,-304 115,-298 121,-292 127,-292 127,-292 190,-292 190,-292 196,-292 202,-298 202,-304 202,-304 202,-316 202,-316 202,-322 196,-328 190,-328"/>
<text text-anchor="middle" x="158.5" y="-307.5" font-family="Fira Mono" font-size="10.00">personal</text>
</g>
<!-- n2&#45;&gt;n3 -->
<g id="edge23" class="edge">
<title>n2&#45;&gt;n3</title>
<path fill="none" stroke="black" stroke-width="2" d="M190.98,-291.89C206.65,-282.88 225.54,-272.01 241.19,-263.01"/>
</g>
<!-- n1 -->
<g id="node26" class="node">
<title>n1</title>
<text text-anchor="start" x="22" y="-340.5" font-family="Fira Mono" font-weight="bold" font-size="10.00">context</text>
</g>
<!-- n1&#45;&gt;n16 -->
<g id="edge25" class="edge">
<title>n1&#45;&gt;n16</title>
<path fill="none" stroke="black" stroke-width="2" d="M65.49,-360.2C85.79,-377.81 116.36,-404.32 136.62,-421.89"/>
</g>
<!-- n1&#45;&gt;n2 -->
<g id="edge24" class="edge">
<title>n1&#45;&gt;n2</title>
<path fill="none" stroke="black" stroke-width="2" d="M87.22,-329.9C96.22,-327.35 105.72,-324.66 114.72,-322.11"/>
</g>
</g>
</svg>
